<svg id="Capa_1" data-name="Capa 1" xmlns="http://www.w3.org/2000/svg" viewBox="0 0 502.86 168.44"><defs><style>.cls-1{fill:#ffffff;}.cls-2{fill:#ffffff;}</style></defs><title>logo_rm</title><path class="cls-1" d="M145.8,113.16a11.45,11.45,0,0,0,1.53,6.34,1,1,0,0,1,.24.55c-.37,5.4,2.11,10.29,2.19,15.59,0,3-.59,5.84-3.16,7.49-1.63,1.05-1.47,2.72-1.16,4.38.47,2.59.33,4.82-2.23,5.87-1.19.49-1.33,1.65-1.34,2.8a10.32,10.32,0,0,1-6.26,10c-3.05,1.47-5.2,4.15-7.42,6.75a1.74,1.74,0,0,0,.18,2.84c1.73,1.41,2.76,3.87,4.41,5,2.29,1.57,4.18,3,5.32,5.94.39,1,2.21.44,3.38.48,3.76.11,4.62.77,5.62,4.84a5.73,5.73,0,0,0,2.19,3.75c2.69,1.82,4,4.82,4.73,8.1.59,2.49,1.29,4.68,3.65,5.75,1.3.58,1.81,2.29,2.63,3.51,1.34,2,2.56,4,5,4.5a2.79,2.79,0,0,1,2,2.33c1.31,6.43,4.67,11.94,6.18,18.28a20.22,20.22,0,0,1,.69,6.15c0,.77-.21,1.51-.9,1.76s-1-.44-1.27-.93a29.85,29.85,0,0,0-4.74-6c-2-2.17-2.58-4.94-2.88-7.9-.12-1.2.08-2.63-1.16-3.28-3.31-1.73-4.83-5.21-6.47-8.57-.78-1.62-1.61-2.86-3.53-2.82-1.76,0-2.62-1.7-3.41-3.22s-1.48-3.11-2.15-4.7c-.42-1-.92-2-2-1.86-4.82.65-6.32-3.38-7.61-7.28-.63-1.89-1.35-2.46-2.91-2.12a.42.42,0,0,1-.27,0,12.51,12.51,0,0,0-8-1.76c-1.63.23-2.69-2.55-3.46-4.44s-1.86-3.17-4-2.85-3.8-1.09-5.28-2.74c-.72-.78-1.29-1.79-2.31-2.14a2.09,2.09,0,0,0-2.54.53,2.27,2.27,0,0,0-.21,2.61,7.29,7.29,0,0,1,.53,6.78,3.46,3.46,0,0,0,1.14,3.87c1.85,1.58,1.82,3.4.83,5.48-.48,1-.92,2-1.34,3.07-1.26,3.09-.3,5.7,1.44,8,1.83,2.5,2.58,4.8.45,7.75-1.46,2-.16,4.2.83,6.05,2,3.78,2.13,5.68-.46,8.89-1.38,1.71-1,3.62-1.34,5.51-.26,1.7.17,4.37-2,4.53-2.4.18-1.79-2.6-2.14-4.26-.27-1.31-.2-2.83-1.08-3.8-2.7-2.92-2.8-6.64-2.57-10.42a8.87,8.87,0,0,0-1.57-5.76,22.37,22.37,0,0,1-3.21-17.91A8,8,0,0,0,97.39,198a7.83,7.83,0,0,1-.77-7.56c1.33-3.61.25-7.42-.05-11.12-.24-2.9-.78-5.76-1.18-8.64-.1-.71,0-1.65-.62-2-4-2.22-2.29-7-3.65-10.46a13.23,13.23,0,0,1-.49-2.63c-.4-2.58-1-5-.14-7.86s.79-6.3-1.83-8.5c-3.33-2.81-3.89-6.74-3.23-10.9.75-4.77.6-8.92-2.71-12.65-2-2.32-1.13-4.71,1.72-5.82,1.38-.54,2.79-1,3.75-2.4a6.15,6.15,0,0,1,6.63-2.72c4.27.78,7.73-.19,10.66-4.21,3.63-5,8.48-4.7,13.3-2.72a71.86,71.86,0,0,1,11.59,5.53,1.47,1.47,0,0,0,2.21-.23c1.81-2.12,2.74-.87,3.62,1.16.66,1.55.18,4.13,1.81,4.57,1.16.31,2.66-1,4-1.6C145.22,106,145.86,106.77,145.8,113.16Zm-12.44,28.67c-.1-1.72-.84-4.1-.2-5.79,1.47-3.92-.52-5.32-2.89-6.69-1.53-.88-2.91-2-3.2-3.95-.43-2.9-2-3.71-4.25-3.73a5.14,5.14,0,0,1-4.92-3.24,2.75,2.75,0,0,0-4.25-1.34c-2.12,1.29-4.42,2.28-6,4.72-1.14,1.78-2.82,3.68-5.07,2-1.91-1.4-2.19-.36-2.22,1.48-.05,3.82,1,7.6.25,11.46a2.52,2.52,0,0,0,.49,1.74c3.47,4.61,1.51,11.48,5.15,16.06.6.76.18,2.22,0,3.35s-.28,2.11.73,2.73a4.75,4.75,0,0,1,2.43,4.49c0,.8.24,1.61,1.07,1.39,3-.78,6.43.49,9-2.67a6.46,6.46,0,0,1,5.21-2.32c2.56,0,3.83-1.51,3.65-4.54-.11-1.9-.08-4.07,1.46-5.1C133.18,149.61,133.33,146,133.36,141.83Z" transform="translate(-81.61 -84.31)"/><path class="cls-2" d="M367.58,162.36c0,4.9,0,9.79,0,14.68a12.33,12.33,0,0,1-2.16,7.55c-1.88,2.54-1.52,5.66-1.55,8.66,0,3.2.32,6.33-3.37,7.85-2.15.88-1.73,3.92-1.51,6.17a39.56,39.56,0,0,1-2.82,18.52c-.74,1.89-1.73,3.66-2.64,5.46-.28.55-.74,1-1.33.9s-.72-.84-.81-1.47c-.7-4.88-1.06-9.71.84-14.41.73-1.78,1.15-3.73,1.77-5.57a10.7,10.7,0,0,0-.32-7.51c-3.72-10.14-3.47-20.48-.68-30.85a2,2,0,0,1,.2-.58c5.8-7.45,4.49-17,5.88-25.77,1.26-8,1.81-16.14,5.9-23.17,1.64-2.82,3.28-5.34,6.8-4.1,1.58.56,1.7-1.06,2.08-2.18A54.62,54.62,0,0,1,381.19,102c.59-.81,1.19-2.36,2.29-1.76s.83,2.28.57,3.41a56.41,56.41,0,0,1-2.14,7.06c-1.6,4.22-1.61,8.3.53,12.23a12.42,12.42,0,0,1,1.09,10.11c-.94,3.12-.19,6.27,1,9.09a30.16,30.16,0,0,1,2.24,15.43c-.5,4.94-.24,10-.3,15,0,.74,0,1.64.77,1.79s1.09-.8,1.1-1.47a6.17,6.17,0,0,1,1.78-4c2-2.5,2.64-5.55,2.53-8.89a54.11,54.11,0,0,1,.37-9.35c.65-4.81,2-9.27,5-12.9a20.82,20.82,0,0,0,5-15c-.29-5.2,1.14-9.56,4.73-13a7.37,7.37,0,0,0,2.7-5.59c-.3-6,2.8-10.36,5.53-14.87a23.46,23.46,0,0,1,2.91-3.71c.55-.59,1.21-1.66,2.08-1.06s.55,1.89.31,2.85a41.48,41.48,0,0,1-1.29,4.1c-.91,2.5-1.76,5-2.83,7.45-3.62,8.15-2.62,17-2.36,25.48.24,7.94.95,16,4.44,23.3a11.79,11.79,0,0,1,.76,7.61,8.68,8.68,0,0,0,1.94,8c2.35,2.72,2.71,5.92,2,9.77-1,5.62-1.78,11.23-4.13,16.39-.66,1.45.08,2.61,1.1,3.49a7.48,7.48,0,0,1,2.38,6.31c-.08,2.39-.07,4.79-.12,7.18,0,1.57-.21,3.23.46,4.62,2.27,4.79,2,10.3,3.49,15.33.62,2.15,1.39,5.14-1.18,6.32s-3.52-1.7-4.39-3.58c-2.23-4.81-5.22-9.43-4.12-15.43.22-1.18-.62-1.85-1.16-2.68-2.39-3.66-4.62-7.38-2.44-12.26.62-1.4,0-2.67-.68-3.79a18.52,18.52,0,0,1-2.14-14.27,7.93,7.93,0,0,0-1-5.95,12.67,12.67,0,0,1-.47-12.37,14.64,14.64,0,0,0,.44-11.7c-.88-2.36-1.13-5-1.75-7.52-.21-.84-.37-2.2-1.34-2.06s-.72,1.51-.72,2.37c0,7.39.19,14.79-2.33,21.86-1,2.9-1.91,5.87-4,8.08-1.35,1.42-1.51,3.26-1.46,5.17.13,5,.09,9.95-3.13,14.13-1.15,1.5-.57,3.82-.58,5.79,0,1.52-.34,2.71-1.88,2.85a2.17,2.17,0,0,1-2.64-2.37c.31-5.24-1.88-8.49-5.43-11.55-3.09-2.66-2.55-7.24-1.93-11.11A18.54,18.54,0,0,0,381,164a32.93,32.93,0,0,1-3.13-8.29c-.63-2.78-1.44-5.21-4.08-6.5-1.95-1-2.33-3.39-2.46-5.6-.13-2.06,0-4.15,0-6.23,0-.59.15-1.36-.56-1.54s-.87.6-1.12,1.11a12.1,12.1,0,0,0-.85,3.58C367.77,147.78,368.13,155.08,367.58,162.36Z" transform="translate(-81.61 -84.31)"/><path class="cls-2" d="M551,178.32c8.91-7.42,18.89-11.43,28.68-15.87,1.46-.66,3.55-2.47,4.62-.13.93,2-1.23,3.51-2.54,4.62-5.33,4.53-10.85,8.74-16.1,13.42a177.46,177.46,0,0,0-16,16.94c-4.47,5.18-9,10.41-14.67,13.9-4.93,3-7.71,8.2-10.47,13.3-5.72,10.6-13.48,18.17-23.79,22.34a23.28,23.28,0,0,0-8.14,5c-.42.43-.95,1.28-1.62.71s-.51-1.57-.29-2.32a16.49,16.49,0,0,1,3-5.16c4.45-6,10.7-9.29,16-14,4.67-4.14,7.48-9.83,10.59-15.31a7.31,7.31,0,0,0,.58-3.64c0-3.45,1.47-5.83,4.38-6.65s4.31-2.7,3.74-6.26c-.39-2.43.86-3.31,2.79-3.59,3.82-.55,5.42-2.22,5.79-6.47a20.38,20.38,0,0,1,2.22-7.29c1.66-3.46,2.64-6.86-.46-10.14-1.21-1.28-1.12-3.23-1.07-5,.05-1.6,0-3.27-1.09-4.36-2.05-2-2.2-4.6-2.15-7.37a64.5,64.5,0,0,0-1.41-16.4,6.17,6.17,0,0,1,1.07-5.8c1.33-1.58.51-3.79.66-5.71.19-2.5.88-2.94,2.74-1.59,2.28,1.65,3.16,4.31,3.49,7.13.6,5.16,1.83,9.93,4.92,13.95a9.52,9.52,0,0,1,1.6,5.55,123.74,123.74,0,0,0,2.34,19.13C550.72,173.37,550.72,175.58,551,178.32Z" transform="translate(-81.61 -84.31)"/><path class="cls-2" d="M220.07,192c.27,4.63-1.12,9.46-2.89,14.18-.83,2.18-5.51,3.69-7.13,2.31-1-.88-.55-2.12-.22-3.16,1.6-5.2,2.72-10.57,4.06-15.86.45-1.8.68-3.48-.14-5.12a5.43,5.43,0,0,1,.55-6.08c2-2.58,1.86-5.76,2.27-8.8.22-1.59-.8-2-1.85-2a10.35,10.35,0,0,0-2.41.5c-4.06.93-4.35.58-3.51-4.21a60.09,60.09,0,0,1,3-10c1.85-5,3.23-10.15,2.92-15.72-.11-2.17,0-4.37.09-6.55.26-6.14,2.12-8.25,7.47-8.6,1.35-.09,2.12.5,2,2.13a11,11,0,0,1-.33,3.39c-2,4.74-.91,9.36.25,14a8.85,8.85,0,0,1-.38,5.18,23,23,0,0,0-.87,6.75c0,.71-.14,1.54.5,2,.79.53,1.41-.09,1.94-.64,5.78-5.9,13.21-9.11,18.87-15.25a8.2,8.2,0,0,1,7-2.91c.78.09,1.78-.24,2.17.85.34.94-.48,1.5-.9,2.12a31.47,31.47,0,0,1-8.33,8.45c-3.38,2.26-5.88,5.19-6.54,9.8a6.05,6.05,0,0,1-3.3,4.67c-2.14,1.15-4.33,2.18-6.46,3.34-1.79,1-2.4,2.22-1.11,4.42,1.45,2.48,2.18,5.45,3.84,7.84s3.41,4.62,6.07,5.58c1.78.64,2.46,2.23,2.92,4.14.69,2.83.9,5.91,3.42,7.78.95.71,1,2.18,1,3.44,0,6,1.82,11.4,3.66,16.85.75,2.21,1.73,4.38,1.46,6.9-.13,1.23-.56,2.19-1.71,1.58-1.43-.75-2.07-.54-2.23,1.32-.07.85-.46,1.58-1.4,1.59s-1.24-.79-1.53-1.54a32.84,32.84,0,0,1-1.5-4.35,5.81,5.81,0,0,0-2.38-3.85c-1.75-1.23-1.64-3.83-2-5.91-.55-3-1.28-5.85-3.57-7.79a2.82,2.82,0,0,1-.94-2.47c.38-3.3-1.09-5.71-2.61-8.26a28.73,28.73,0,0,1-2.73-6.43c-.65-2.18-1.67-2.49-3.31-1.65-.33.17-.68.51-1,.48-2.51-.27-2.58,1.42-2.26,3.5A20.73,20.73,0,0,1,220.07,192Z" transform="translate(-81.61 -84.31)"/><path class="cls-2" d="M470.92,150.38c.68-.22.71-1,.9-1.47.83-2.21,1-5.4,3.54-5.62,3.93-.35,8.39-1.65,11.74,1.23,5.07,4.35,7.69,17.33.82,21.58-3,1.83-5.88,3.76-8.85,5.56-.7.43-1.67.79-1.5,1.93.14.89,1.06,1.12,1.73,1.29,3.12.81,4.37,3.05,4.14,6.6a6.16,6.16,0,0,0,1.15,4.33,9.06,9.06,0,0,1,1.45,5.87c-.15,4.87.35,9.56,2.89,13.72,1,1.57.67,3.4.36,5.15s-.68,3.23-.94,4.86c-.14.91,0,2-1,2.25-.85.22-1.3-.55-1.79-1.17-2.17-2.77-2.95-6.14-3.36-9.71-1.06-9.1-3.17-17.74-8.53-24.92-.49-.66-.71-2-1.72-1.61s-.64,1.61-.67,2.52c-.09,3.33-.13,6.66-.18,10a9.83,9.83,0,0,1-4.32,8.15c-1.85,1.38-2.55.73-2.54-1.43A33.75,33.75,0,0,1,466,188.2c.36-1,.92-2,.48-2.94-1.27-2.67-.82-5.37-.6-8.16a10.09,10.09,0,0,0-1.74-7c-1.26-1.69-1-3.71-.5-5.65a15.6,15.6,0,0,0-.27-9.46c-1.34-3.74-.63-7.62-.14-11.4.29-2.25,1.69-3.42,3.78-3a5,5,0,0,1,4.26,5.16A20.35,20.35,0,0,0,470.92,150.38Zm5.8,16c1.7-.79,2.43-2.6,2.6-4.75.15-2,0-3.95,1.89-5.13.82-.51.51-1.44,0-2.12-1.49-1.84-2.84-1.45-4.05.4s-2.32,4.32-5,4.28c-.46,0-.77.44-.84,1C471.12,161.81,474.9,166.45,476.72,166.41Z" transform="translate(-81.61 -84.31)"/><path class="cls-2" d="M444.59,198c-4.4-1.31-9.67-2-14.3-5.08a4.65,4.65,0,0,1-1.75-3.72,32.53,32.53,0,0,0-1.39-7.61,10.37,10.37,0,0,1-.37-3.69c.21-3.18.64-6.31.59-9.56-.05-3.42,1.39-6.48,4.84-7.37,1.62-.42,2.42-1.75,2.79-3.48a14.4,14.4,0,0,1,5.32-8.69c2.07-1.63,4.11-2.06,6.1-.61a57,57,0,0,0,7.28,4.27c2.36,1.25,3.22,3.26,2.65,6.08-.39,1.93-.83,3.85-1.35,5.73-1.87,6.64-.89,10.74,4,14.68,1.89,1.51,2.15,2.83,1.31,5.16C457.8,191.11,450.56,197.91,444.59,198ZM443,166.83c-.06-1.2-.1-2.13-.16-3.07s.15-2.34-1.27-2.09c-1.25.21-2.74,2-2.32,2.49,1.74,2.05-.44,2.57-.84,3.64-.74,2-1.9,3.77-2.67,5.75-.66,1.69-1.32,4,.62,4.85s2.33,2.11,2.62,4.06c.48,3.13,4.6,5.14,7,3.5.26-.18.61-.74.54-.92-1.47-3.58.45-6.91.52-10.36,0-1.12.08-2.69-1.13-2.85C442.85,171.44,442.58,169.32,443,166.83Z" transform="translate(-81.61 -84.31)"/><path class="cls-2" d="M499.19,182.59c.54-2.43-.45-4.59-3.8-5.36-1.56-.35-3-1.49-4.44-2.37-.6-.36-1.56-.63-1.4-1.66s1.15-1.28,2-1.33c2.13-.14,4.05-1.17,6.07-1.78,1.68-.51,2.22-1.68,1.94-3.45a6.59,6.59,0,0,1,1.42-5.74,2.77,2.77,0,0,0,.73-1.63c0-6.16,2.42-11.94,2.12-18.16-.15-3,3.79-9.15,6.28-10.2,1.37-.58,2.3-.24,2.61,1.56a6,6,0,0,1-1.61,5.31c-2.32,2.6-2.56,4.59-.8,7.77,1.86,3.38,2,6.69,0,9.91a20,20,0,0,0-2.83,12c0,.52-.08,1.34.39,1.3,2.77-.19,4.67,2.29,7.24,3,3.76,1.08,8.32.17,11.26,4.32.84,1.19,1.31,2.05-.33,2.77a1.5,1.5,0,0,0-.94,1.36c-.34,2.74-2.11,3.87-4.1,2.17a5.54,5.54,0,0,0-5.8-1.28c-1.11.34-2.28-.34-3.28-1.2-1.37-1.19-3.06-1.84-4.59-.89s-.75,2.82-.84,4.31c-.85,13.57-1.56,27.17-5.75,40.12-.43,1.33-.71,3.16-2.38,2.8s-1.18-2.13-1.08-3.4c.43-5.26.17-10.61,1.83-15.69.59-1.82-.17-3.46-.77-5.09-.39-1-1.19-2.1-.71-3.23,1-2.42,2.41-4.72.08-7.19a1.39,1.39,0,0,1,.12-1.16C499.41,188.54,498.84,186,499.19,182.59Z" transform="translate(-81.61 -84.31)"/><path class="cls-2" d="M206.21,187.58c0,3.43-1.85,5.55-5.6,6.15-1.76.28-3.4.44-4.69,2.07a2.81,2.81,0,0,1-1.77.65c-4.21.6-6.52,3-7.2,7.64-.25,1.67-.25,3.52-2.23,3.69s-2.51-1.63-2.87-3.43c-.53-2.62-1.43-5.12-1.43-7.91,0-2.46-1.72-2.83-3.47-3-3-.27-3.44-1.1-2.55-4.42.6-2.25,1.66-4.41-1-6.2-1.19-.79-.52-2.6.37-3.54,3.67-3.86,3.94-9.32,5.2-14.27.86-3.39,1.69-6.42,5.25-7a3.55,3.55,0,0,0,2.46-2.25c.68-1.35,1.4-2.68,2.18-4,1.9-3.07,3.59-3.65,6.54-2a2.28,2.28,0,0,0,2.72,0c2-1.17,4.11-.63,6.15-.23,1.35.27,1.89,1.61,1.74,3.1-.2,2-.93,3.74-2.89,4-2.17.26-4.37.24-6.56.34a3.3,3.3,0,0,0-3.46,2.88c-.5,2.9-2.31,4.32-4.34,5.63a6.64,6.64,0,0,0-2.89,2.77c-.64,1.4-.85,2.52.42,3.83,2.29,2.35,2.34,5,.27,7.63-1.47,1.86-2.66,3.75-2.07,6.4.37,1.63.8,2.69,2.56,1.12,4.19-3.75,6.76-3.81,11.29-.51.94.68,1.58.83,2.38-.07a4.15,4.15,0,0,1,3.84-1.15C205.76,185.69,206.44,186.29,206.21,187.58Z" transform="translate(-81.61 -84.31)"/><path class="cls-2" d="M322.26,195c-1.17.11-1.41,1-1.87,1.61-2.21,2.92-4,3.4-7.28,2.15a3.57,3.57,0,0,1-2.33-2.71,30.78,30.78,0,0,1-.31-13,7.59,7.59,0,0,1,5.24-6.21,3.58,3.58,0,0,0,2.65-3.74,13.42,13.42,0,0,1,2.78-8.26c1.09-1.38.84-3.16.77-4.79a17.1,17.1,0,0,1,2.46-9.71c.92-1.57,2.1-2.38,3.71-1.58s1.06,2.42.69,3.77c-1.06,4-1.77,7.86.51,11.65a1.54,1.54,0,0,1-.59,2.14c-1.75.88-1.45,2.52-1.6,4.19-.29,3.3-.71,6.61-1.29,9.87a15.85,15.85,0,0,0,1.32,10.24,17.87,17.87,0,0,1,2.05,6.73c.11,1.62.81,3.77-1.57,4.2s-5.25-1.69-5.33-3.92C322.24,196.81,322.26,196,322.26,195Zm-2-11.83c-2.08.06-3.48.7-4.29,2.36-.56,1.17-1,2.52-.18,3.79a1.46,1.46,0,0,0,1.7.68,3,3,0,0,0,1.94-3A9.09,9.09,0,0,1,320.29,183.16Z" transform="translate(-81.61 -84.31)"/><path class="cls-2" d="M285.11,161.58c-1.16,6.6,1.29,12.72,3.09,18.88,1.48,5.08,1.52,10.22,1.69,15.41a2.23,2.23,0,0,1-2.12,2.62c-1.56.24-1.91-1.07-2-2.29-.51-4.64-3.37-8-4.89-12.11-.35-.94-1.21-2.09-2.37-1.6s-.86,1.69-.82,2.72a6.26,6.26,0,0,1-.82,3.87A10.7,10.7,0,0,0,275,194.5a9.43,9.43,0,0,1-1.32,3.73c-.7,1.25-1.6,1.7-2.78,1.24a2.27,2.27,0,0,1-1.18-3.06,4.41,4.41,0,0,0-.51-4c-1.09-1.92-.39-3.8.59-5.54,2.65-4.7,4.18-9.6,2.75-15.33-.69-2.77.13-4.91,2.23-7.07s5.63-3.66,5.44-8.12a2.57,2.57,0,0,1,1.08-1.73c1-.68,1.67-2.33,3-1.64s.75,2.2.8,3.39C285.16,158,285.11,159.7,285.11,161.58Zm-4.89,5.32c-1.54,1.89-1.49,4-1.85,6-.14.78-.52,1.69.65,1.86s1.75-.28,1.69-1.67C280.62,171.16,281,169.2,280.22,166.9Z" transform="translate(-81.61 -84.31)"/><path class="cls-2" d="M311.06,166.78c-.61,6-1.17,12.26-3.12,18.15a17.52,17.52,0,0,0-.54,6.44c.06,1.19.76,3-1,3.37-1.28.27-2-.83-2.71-2.1-1.61-2.94-3.9-5.42-4.35-9.12a4.17,4.17,0,0,0-1.09-1.77c-.4-.5-.64-1.52-1.38-1.24-.95.36-.6,1.41-.42,2.14a20.3,20.3,0,0,1,.14,8.64,4.61,4.61,0,0,1-1.28,2.69c-1.13,1-2.41,1.26-2.46-.89a28.61,28.61,0,0,0-2-9c-.49-1.4-.73-3.22.14-4.2,1.66-1.88,1-3.66.63-5.7a31.74,31.74,0,0,1,0-8.09,4.47,4.47,0,0,1,1.94-3.26c1.47-1.08,2.6-.87,3,1.27.26,1.22.45,2.45.67,3.67.28,1.58.44,3,2.55,2.53,1.92-.43,1.95,1.38,1.71,2.9s0,2.25,1.36,2.36,1.33-1,1.4-2.06a23.45,23.45,0,0,1,3.58-11.59c.44-.65.68-1.67,1.56-1.49s1.26,1.22,1.38,2.13C311,163.89,311,165.25,311.06,166.78Z" transform="translate(-81.61 -84.31)"/><path class="cls-2" d="M161,200.61c.4-4.6-.88-9.05-1-13.61a36.67,36.67,0,0,1-.32-4,11.61,11.61,0,0,0-1.87-7.6,7.23,7.23,0,0,1-.48-7.58,10.9,10.9,0,0,0-.21-10.1,7.21,7.21,0,0,1,0-7.11c1.28-2.25,3.43-3,5.68-3.18,1.3-.11,2,.73,2.3,2.13a21.71,21.71,0,0,1-.55,11.37c-1.46,4.81-1.08,6.14,2.83,8.58,1.51.94,1.82,2.18.91,3.85-.68,1.24-1.36,2.47-1.93,3.77a4.71,4.71,0,0,0,.23,4.67c1.8,3.05,1.36,8.42-.8,11.21a4.12,4.12,0,0,0-.84,2.53,56.1,56.1,0,0,1-1.51,8.87c-.2,1-.44,2-1.48,1.87s-.92-1.34-1-2.21C161,202.91,161,201.76,161,200.61Z" transform="translate(-81.61 -84.31)"/><path class="cls-2" d="M166.16,132c0,.42-.06.84-.11,1.25-.68,6.09-2.27,7.92-8.45,4.6-2.59-1.38-3.08-3.62-1.58-6.42,1.25-2.35,2.77-4.33,1.85-7.57-.56-2,1-3.1,2.81-3.31s2.54.92,2.59,2.73a5,5,0,0,0,1.35,3.58C166,128.27,166.13,130.13,166.16,132Z" transform="translate(-81.61 -84.31)"/></svg>